# xmcd
#
# Track frame offsets:
#	150
#	18377
#	29187
#	42050
#	58280
#	73887
#	87550
#	103485
#	116877
#	131892
#	153720
#	172160
#	186912
#
# Disc length: 2672 seconds
#
# Revision: 0
# Processed by: cddbd v1.5.1PL0 Copyright (c) Steve Scherf et al.
# Submitted via: dBpowerAMP V4.0
#
DISCID=d40a6e0d
DTITLE=G. Thomas - Jesus in a Leather Jacket
DYEAR=1995
DGENRE=Country
TTITLE0=Jesus in a leather jacket
TTITLE1=It's about time
TTITLE2=Greener Pastures
TTITLE3=Listen to the rain
TTITLE4=Looking for the sunshine
TTITLE5=This is the next time
TTITLE6=Crimes of the heart
TTITLE7=The old me
TTITLE8=Completely over you
TTITLE9=Cutthroat, Montana
TTITLE10=Come on Joe
TTITLE11=When love comes to town
TTITLE12=Squares
EXTD=
EXTT0=
EXTT1=
EXTT2=
EXTT3=
EXTT4=
EXTT5=
EXTT6=
EXTT7=
EXTT8=
EXTT9=
EXTT10=
EXTT11=
EXTT12=
PLAYORDER=
